<?xml version="1.0" encoding="UTF-8"?>
<svg width="200" height="200" viewBox="0 0 200 200" xmlns="http://www.w3.org/2000/svg" role="img" aria-label="AI Health Diagnostic logo">
  <defs>
    <linearGradient id="g1" x1="0" x2="1" y1="0" y2="1">
      <stop offset="0%" stop-color="#7C3AED" />
      <stop offset="50%" stop-color="#10B981" />
      <stop offset="100%" stop-color="#06B6D4" />
    </linearGradient>
  </defs>
  <rect width="100%" height="100%" rx="24" fill="none" />

  <!-- stylized head outline -->
  <path d="M60 30 C40 30 30 55 40 80 C50 105 75 120 95 128 C115 136 140 140 152 132 C164 124 158 102 150 92 C142 82 130 74 120 70" fill="none" stroke="url(#g1)" stroke-width="8" stroke-linecap="round" stroke-linejoin="round" />

  <!-- heart-shaped brain/organ inside -->
  <path d="M120 48 C110 40 100 44 95 52 C90 44 80 40 70 48 C56 60 78 78 95 96 C112 78 134 60 120 48 Z" fill="url(#g1)" opacity="0.95" />

  <!-- small accent circle -->
  <circle cx="92" cy="90" r="3" fill="#fff" opacity="0.6" />

  <!-- Text: short name under logo -->
  <text x="50%" y="175" font-family="Inter, Arial, sans-serif" font-size="16" fill="#0F172A" font-weight="700" text-anchor="middle">AI Health Diagnostic</text>
</svg>
